<svg width="575" height="144" viewBox="0 0 575 144" fill="none" xmlns="http://www.w3.org/2000/svg">
<path d="M279.276 32.4419C274.154 36.6256 266.632 35.5763 260.726 32.6003C260.254 32.3625 259.773 32.1356 259.283 31.9193C255.143 30.0376 250.313 29.0968 244.794 29.0968C239.274 29.0968 234.13 30.1631 229.363 32.2957C224.722 34.4283 220.645 37.4391 217.132 41.328C213.745 45.0914 211.048 49.6075 209.041 54.8763C207.159 60.1452 206.218 65.853 206.218 72C206.218 78.2724 207.159 84.043 209.041 89.3118C211.048 94.4552 213.745 98.9713 217.132 102.86C220.519 106.624 224.471 109.572 228.987 111.704C233.629 113.837 238.584 114.903 243.853 114.903C249.874 114.903 255.206 113.649 259.847 111.14C260.759 110.647 261.64 110.115 262.489 109.545C268.197 105.709 275.956 104.057 281.468 108.169L286.368 111.826C291.602 115.731 292.85 123.256 287.99 127.617C283.955 131.239 279.404 134.152 274.337 136.355C265.681 140.118 256.774 142 247.616 142C237.204 142 227.607 140.369 218.826 137.108C210.044 133.846 202.455 129.204 196.057 123.183C189.659 117.036 184.641 109.634 181.003 100.978C177.491 92.3226 175.734 82.6631 175.734 72C175.734 61.3369 177.491 51.6774 181.003 43.0215C184.641 34.3656 189.659 27.0269 196.057 21.0054C202.455 14.8584 210.044 10.1541 218.826 6.89247C227.607 3.63082 237.204 2 247.616 2C251.38 2 255.268 2.37634 259.283 3.12903C263.423 3.75627 267.437 4.82258 271.326 6.32796C275.34 7.83333 279.166 9.8405 282.804 12.3495C283.261 12.6644 283.712 12.9881 284.156 13.3208C289.41 17.2505 288.508 24.9028 283.427 29.0525L279.276 32.4419Z" fill="#292828"/>
<path d="M308.503 87.3238C308.503 80.6964 313.876 75.3238 320.503 75.3238H324.729C331.356 75.3238 336.729 80.6964 336.729 87.3238V129.613C336.729 136.24 331.356 141.613 324.729 141.613H320.503C313.876 141.613 308.503 136.24 308.503 129.613V87.3238ZM306.245 49.8156C306.245 45.2994 307.813 41.4733 310.949 38.3371C314.211 35.0754 318.1 33.4446 322.616 33.4446C327.132 33.4446 330.958 35.0754 334.094 38.3371C337.356 41.4733 338.987 45.2994 338.987 49.8156C338.987 54.3317 337.356 58.2206 334.094 61.4822C330.958 64.6184 327.132 66.1865 322.616 66.1865C318.1 66.1865 314.211 64.6184 310.949 61.4822C307.813 58.2206 306.245 54.3317 306.245 49.8156Z" fill="#292828"/>
<path d="M456.974 32.4419C451.851 36.6256 444.33 35.5763 438.423 32.6003C437.951 32.3625 437.47 32.1356 436.98 31.9193C432.841 30.0376 428.011 29.0968 422.491 29.0968C416.971 29.0968 411.828 30.1631 407.061 32.2957C402.419 34.4283 398.342 37.4391 394.83 41.328C391.443 45.0914 388.746 49.6075 386.738 54.8763C384.857 60.1452 383.916 65.853 383.916 72C383.916 78.2724 384.857 84.043 386.738 89.3118C388.746 94.4552 391.443 98.9713 394.83 102.86C398.217 106.624 402.169 109.572 406.685 111.704C411.326 113.837 416.281 114.903 421.55 114.903C427.572 114.903 432.903 113.649 437.545 111.14C438.457 110.647 439.337 110.115 440.186 109.545C445.895 105.709 453.653 104.057 459.165 108.169L464.066 111.826C469.3 115.731 470.548 123.256 465.688 127.617C461.653 131.239 457.101 134.152 452.034 136.355C443.378 140.118 434.471 142 425.314 142C414.902 142 405.305 140.369 396.523 137.108C387.742 133.846 380.152 129.204 373.755 123.183C367.357 117.036 362.339 109.634 358.701 100.978C355.188 92.3226 353.432 82.6631 353.432 72C353.432 61.3369 355.188 51.6774 358.701 43.0215C362.339 34.3656 367.357 27.0269 373.755 21.0054C380.152 14.8584 387.742 10.1541 396.523 6.89247C405.305 3.63082 414.902 2 425.314 2C429.077 2 432.966 2.37634 436.98 3.12903C441.12 3.75627 445.135 4.82258 449.023 6.32796C453.038 7.83333 456.864 9.8405 460.502 12.3495C460.958 12.6644 461.409 12.9881 461.854 13.3208C467.107 17.2505 466.206 24.9028 461.124 29.0525L456.974 32.4419Z" fill="#292828"/>
<path d="M490.529 20.3871C490.529 13.7597 495.901 8.3871 502.529 8.3871H507.883C514.511 8.3871 519.883 13.7597 519.883 20.3871V102.516C519.883 109.144 525.256 114.516 531.883 114.516H562.265C568.893 114.516 574.265 119.889 574.265 126.516V129.613C574.265 136.24 568.893 141.613 562.265 141.613H502.529C495.901 141.613 490.529 136.24 490.529 129.613V20.3871Z" fill="#292828"/>
<path d="M15.7344 42L21.7344 12H50.7344M15.7344 42L11.7344 72M15.7344 42H47.7344M50.7344 12H79.7344M50.7344 12L47.7344 42M79.7344 12H108.734M79.7344 12V42M108.734 12H137.734L143.734 42M108.734 12L111.734 42M143.734 42L145.734 72M143.734 42H111.734M145.734 72L141.734 102M145.734 72H113.734M141.734 102L137.734 132H108.734M141.734 102H111.734M108.734 132H79.7344M108.734 132L111.734 102M79.7344 132H50.7344M79.7344 132V102M50.7344 132H21.7344L15.7344 102M50.7344 132L47.7344 102M15.7344 102L11.7344 72M15.7344 102H47.7344M11.7344 72H45.7344M47.7344 42L45.7344 72M47.7344 42H79.7344M45.7344 72L47.7344 102M45.7344 72H79.7344M47.7344 102H79.7344M79.7344 102H111.734M79.7344 102V72M111.734 102L113.734 72M113.734 72L111.734 42M113.734 72H79.7344M111.734 42H79.7344M79.7344 42V72" stroke="#292828" stroke-width="3" stroke-linejoin="round"/>
<path d="M89.7344 12C89.7344 17.5228 85.2572 22 79.7344 22C74.2115 22 69.7344 17.5228 69.7344 12C69.7344 6.47715 74.2115 2 79.7344 2C85.2572 2 89.7344 6.47715 89.7344 12Z" fill="url(#paint0_linear_217_102)"/>
<path d="M89.7344 42C89.7344 47.5228 85.2572 52 79.7344 52C74.2115 52 69.7344 47.5228 69.7344 42C69.7344 36.4772 74.2115 32 79.7344 32C85.2572 32 89.7344 36.4772 89.7344 42Z" fill="url(#paint1_linear_217_102)"/>
<path d="M89.7344 72C89.7344 77.5228 85.2572 82 79.7344 82C74.2115 82 69.7344 77.5228 69.7344 72C69.7344 66.4772 74.2115 62 79.7344 62C85.2572 62 89.7344 66.4772 89.7344 72Z" fill="url(#paint2_linear_217_102)"/>
<path d="M89.7344 102C89.7344 107.523 85.2572 112 79.7344 112C74.2115 112 69.7344 107.523 69.7344 102C69.7344 96.4772 74.2115 92 79.7344 92C85.2572 92 89.7344 96.4772 89.7344 102Z" fill="url(#paint3_linear_217_102)"/>
<path d="M121.734 102C121.734 107.523 117.257 112 111.734 112C106.212 112 101.734 107.523 101.734 102C101.734 96.4772 106.212 92 111.734 92C117.257 92 121.734 96.4772 121.734 102Z" fill="url(#paint4_linear_217_102)"/>
<path d="M123.734 72C123.734 77.5228 119.257 82 113.734 82C108.212 82 103.734 77.5228 103.734 72C103.734 66.4772 108.212 62 113.734 62C119.257 62 123.734 66.4772 123.734 72Z" fill="url(#paint5_linear_217_102)"/>
<path d="M121.734 42C121.734 47.5228 117.257 52 111.734 52C106.212 52 101.734 47.5228 101.734 42C101.734 36.4772 106.212 32 111.734 32C117.257 32 121.734 36.4772 121.734 42Z" fill="url(#paint6_linear_217_102)"/>
<path d="M118.734 12C118.734 17.5228 114.257 22 108.734 22C103.212 22 98.7344 17.5228 98.7344 12C98.7344 6.47715 103.212 2 108.734 2C114.257 2 118.734 6.47715 118.734 12Z" fill="url(#paint7_linear_217_102)"/>
<path d="M147.734 12C147.734 17.5228 143.257 22 137.734 22C132.212 22 127.734 17.5228 127.734 12C127.734 6.47715 132.212 2 137.734 2C143.257 2 147.734 6.47715 147.734 12Z" fill="url(#paint8_linear_217_102)"/>
<path d="M153.734 42C153.734 47.5228 149.257 52 143.734 52C138.212 52 133.734 47.5228 133.734 42C133.734 36.4772 138.212 32 143.734 32C149.257 32 153.734 36.4772 153.734 42Z" fill="url(#paint9_linear_217_102)"/>
<path d="M155.734 72C155.734 77.5228 151.257 82 145.734 82C140.212 82 135.734 77.5228 135.734 72C135.734 66.4772 140.212 62 145.734 62C151.257 62 155.734 66.4772 155.734 72Z" fill="url(#paint10_linear_217_102)"/>
<path d="M151.734 102C151.734 107.523 147.257 112 141.734 112C136.212 112 131.734 107.523 131.734 102C131.734 96.4772 136.212 92 141.734 92C147.257 92 151.734 96.4772 151.734 102Z" fill="url(#paint11_linear_217_102)"/>
<path d="M89.7344 132C89.7344 137.523 85.2572 142 79.7344 142C74.2115 142 69.7344 137.523 69.7344 132C69.7344 126.477 74.2115 122 79.7344 122C85.2572 122 89.7344 126.477 89.7344 132Z" fill="url(#paint12_linear_217_102)"/>
<path d="M60.7344 12C60.7344 17.5228 56.2572 22 50.7344 22C45.2115 22 40.7344 17.5228 40.7344 12C40.7344 6.47715 45.2115 2 50.7344 2C56.2572 2 60.7344 6.47715 60.7344 12Z" fill="url(#paint13_linear_217_102)"/>
<path d="M57.7344 42C57.7344 47.5228 53.2572 52 47.7344 52C42.2115 52 37.7344 47.5228 37.7344 42C37.7344 36.4772 42.2115 32 47.7344 32C53.2572 32 57.7344 36.4772 57.7344 42Z" fill="url(#paint14_linear_217_102)"/>
<path d="M55.7344 72C55.7344 77.5228 51.2572 82 45.7344 82C40.2115 82 35.7344 77.5228 35.7344 72C35.7344 66.4772 40.2115 62 45.7344 62C51.2572 62 55.7344 66.4772 55.7344 72Z" fill="url(#paint15_linear_217_102)"/>
<path d="M57.7344 102C57.7344 107.523 53.2572 112 47.7344 112C42.2115 112 37.7344 107.523 37.7344 102C37.7344 96.4772 42.2115 92 47.7344 92C53.2572 92 57.7344 96.4772 57.7344 102Z" fill="url(#paint16_linear_217_102)"/>
<path d="M60.7344 132C60.7344 137.523 56.2572 142 50.7344 142C45.2115 142 40.7344 137.523 40.7344 132C40.7344 126.477 45.2115 122 50.7344 122C56.2572 122 60.7344 126.477 60.7344 132Z" fill="url(#paint17_linear_217_102)"/>
<path d="M31.7344 12C31.7344 17.5228 27.2572 22 21.7344 22C16.2115 22 11.7344 17.5228 11.7344 12C11.7344 6.47715 16.2115 2 21.7344 2C27.2572 2 31.7344 6.47715 31.7344 12Z" fill="url(#paint18_linear_217_102)"/>
<path d="M25.7344 42C25.7344 47.5228 21.2572 52 15.7344 52C10.2115 52 5.73438 47.5228 5.73438 42C5.73438 36.4772 10.2115 32 15.7344 32C21.2572 32 25.7344 36.4772 25.7344 42Z" fill="url(#paint19_linear_217_102)"/>
<path d="M21.7344 72C21.7344 77.5228 17.2572 82 11.7344 82C6.21153 82 1.73438 77.5228 1.73438 72C1.73438 66.4772 6.21153 62 11.7344 62C17.2572 62 21.7344 66.4772 21.7344 72Z" fill="url(#paint20_linear_217_102)"/>
<path d="M25.7344 102C25.7344 107.523 21.2572 112 15.7344 112C10.2115 112 5.73438 107.523 5.73438 102C5.73438 96.4772 10.2115 92 15.7344 92C21.2572 92 25.7344 96.4772 25.7344 102Z" fill="url(#paint21_linear_217_102)"/>
<path d="M31.7344 132C31.7344 137.523 27.2572 142 21.7344 142C16.2115 142 11.7344 137.523 11.7344 132C11.7344 126.477 16.2115 122 21.7344 122C27.2572 122 31.7344 126.477 31.7344 132Z" fill="url(#paint22_linear_217_102)"/>
<path d="M118.734 132C118.734 137.523 114.257 142 108.734 142C103.212 142 98.7344 137.523 98.7344 132C98.7344 126.477 103.212 122 108.734 122C114.257 122 118.734 126.477 118.734 132Z" fill="url(#paint23_linear_217_102)"/>
<path d="M147.734 132C147.734 137.523 143.257 142 137.734 142C132.212 142 127.734 137.523 127.734 132C127.734 126.477 132.212 122 137.734 122C143.257 122 147.734 126.477 147.734 132Z" fill="url(#paint24_linear_217_102)"/>
<path d="M89.7344 12C89.7344 17.5228 85.2572 22 79.7344 22C74.2115 22 69.7344 17.5228 69.7344 12C69.7344 6.47715 74.2115 2 79.7344 2C85.2572 2 89.7344 6.47715 89.7344 12Z" stroke="#292828" stroke-width="3" stroke-linejoin="round"/>
<path d="M89.7344 42C89.7344 47.5228 85.2572 52 79.7344 52C74.2115 52 69.7344 47.5228 69.7344 42C69.7344 36.4772 74.2115 32 79.7344 32C85.2572 32 89.7344 36.4772 89.7344 42Z" stroke="#292828" stroke-width="3" stroke-linejoin="round"/>
<path d="M89.7344 72C89.7344 77.5228 85.2572 82 79.7344 82C74.2115 82 69.7344 77.5228 69.7344 72C69.7344 66.4772 74.2115 62 79.7344 62C85.2572 62 89.7344 66.4772 89.7344 72Z" stroke="#292828" stroke-width="3" stroke-linejoin="round"/>
<path d="M89.7344 102C89.7344 107.523 85.2572 112 79.7344 112C74.2115 112 69.7344 107.523 69.7344 102C69.7344 96.4772 74.2115 92 79.7344 92C85.2572 92 89.7344 96.4772 89.7344 102Z" stroke="#292828" stroke-width="3" stroke-linejoin="round"/>
<path d="M121.734 102C121.734 107.523 117.257 112 111.734 112C106.212 112 101.734 107.523 101.734 102C101.734 96.4772 106.212 92 111.734 92C117.257 92 121.734 96.4772 121.734 102Z" stroke="#292828" stroke-width="3" stroke-linejoin="round"/>
<path d="M123.734 72C123.734 77.5228 119.257 82 113.734 82C108.212 82 103.734 77.5228 103.734 72C103.734 66.4772 108.212 62 113.734 62C119.257 62 123.734 66.4772 123.734 72Z" stroke="#292828" stroke-width="3" stroke-linejoin="round"/>
<path d="M121.734 42C121.734 47.5228 117.257 52 111.734 52C106.212 52 101.734 47.5228 101.734 42C101.734 36.4772 106.212 32 111.734 32C117.257 32 121.734 36.4772 121.734 42Z" stroke="#292828" stroke-width="3" stroke-linejoin="round"/>
<path d="M118.734 12C118.734 17.5228 114.257 22 108.734 22C103.212 22 98.7344 17.5228 98.7344 12C98.7344 6.47715 103.212 2 108.734 2C114.257 2 118.734 6.47715 118.734 12Z" stroke="#292828" stroke-width="3" stroke-linejoin="round"/>
<path d="M147.734 12C147.734 17.5228 143.257 22 137.734 22C132.212 22 127.734 17.5228 127.734 12C127.734 6.47715 132.212 2 137.734 2C143.257 2 147.734 6.47715 147.734 12Z" stroke="#292828" stroke-width="3" stroke-linejoin="round"/>
<path d="M153.734 42C153.734 47.5228 149.257 52 143.734 52C138.212 52 133.734 47.5228 133.734 42C133.734 36.4772 138.212 32 143.734 32C149.257 32 153.734 36.4772 153.734 42Z" stroke="#292828" stroke-width="3" stroke-linejoin="round"/>
<path d="M155.734 72C155.734 77.5228 151.257 82 145.734 82C140.212 82 135.734 77.5228 135.734 72C135.734 66.4772 140.212 62 145.734 62C151.257 62 155.734 66.4772 155.734 72Z" stroke="#292828" stroke-width="3" stroke-linejoin="round"/>
<path d="M151.734 102C151.734 107.523 147.257 112 141.734 112C136.212 112 131.734 107.523 131.734 102C131.734 96.4772 136.212 92 141.734 92C147.257 92 151.734 96.4772 151.734 102Z" stroke="#292828" stroke-width="3" stroke-linejoin="round"/>
<path d="M89.7344 132C89.7344 137.523 85.2572 142 79.7344 142C74.2115 142 69.7344 137.523 69.7344 132C69.7344 126.477 74.2115 122 79.7344 122C85.2572 122 89.7344 126.477 89.7344 132Z" stroke="#292828" stroke-width="3" stroke-linejoin="round"/>
<path d="M60.7344 12C60.7344 17.5228 56.2572 22 50.7344 22C45.2115 22 40.7344 17.5228 40.7344 12C40.7344 6.47715 45.2115 2 50.7344 2C56.2572 2 60.7344 6.47715 60.7344 12Z" stroke="#292828" stroke-width="3" stroke-linejoin="round"/>
<path d="M57.7344 42C57.7344 47.5228 53.2572 52 47.7344 52C42.2115 52 37.7344 47.5228 37.7344 42C37.7344 36.4772 42.2115 32 47.7344 32C53.2572 32 57.7344 36.4772 57.7344 42Z" stroke="#292828" stroke-width="3" stroke-linejoin="round"/>
<path d="M55.7344 72C55.7344 77.5228 51.2572 82 45.7344 82C40.2115 82 35.7344 77.5228 35.7344 72C35.7344 66.4772 40.2115 62 45.7344 62C51.2572 62 55.7344 66.4772 55.7344 72Z" stroke="#292828" stroke-width="3" stroke-linejoin="round"/>
<path d="M57.7344 102C57.7344 107.523 53.2572 112 47.7344 112C42.2115 112 37.7344 107.523 37.7344 102C37.7344 96.4772 42.2115 92 47.7344 92C53.2572 92 57.7344 96.4772 57.7344 102Z" stroke="#292828" stroke-width="3" stroke-linejoin="round"/>
<path d="M60.7344 132C60.7344 137.523 56.2572 142 50.7344 142C45.2115 142 40.7344 137.523 40.7344 132C40.7344 126.477 45.2115 122 50.7344 122C56.2572 122 60.7344 126.477 60.7344 132Z" stroke="#292828" stroke-width="3" stroke-linejoin="round"/>
<path d="M31.7344 12C31.7344 17.5228 27.2572 22 21.7344 22C16.2115 22 11.7344 17.5228 11.7344 12C11.7344 6.47715 16.2115 2 21.7344 2C27.2572 2 31.7344 6.47715 31.7344 12Z" stroke="#292828" stroke-width="3" stroke-linejoin="round"/>
<path d="M25.7344 42C25.7344 47.5228 21.2572 52 15.7344 52C10.2115 52 5.73438 47.5228 5.73438 42C5.73438 36.4772 10.2115 32 15.7344 32C21.2572 32 25.7344 36.4772 25.7344 42Z" stroke="#292828" stroke-width="3" stroke-linejoin="round"/>
<path d="M21.7344 72C21.7344 77.5228 17.2572 82 11.7344 82C6.21153 82 1.73438 77.5228 1.73438 72C1.73438 66.4772 6.21153 62 11.7344 62C17.2572 62 21.7344 66.4772 21.7344 72Z" stroke="#292828" stroke-width="3" stroke-linejoin="round"/>
<path d="M25.7344 102C25.7344 107.523 21.2572 112 15.7344 112C10.2115 112 5.73438 107.523 5.73438 102C5.73438 96.4772 10.2115 92 15.7344 92C21.2572 92 25.7344 96.4772 25.7344 102Z" stroke="#292828" stroke-width="3" stroke-linejoin="round"/>
<path d="M31.7344 132C31.7344 137.523 27.2572 142 21.7344 142C16.2115 142 11.7344 137.523 11.7344 132C11.7344 126.477 16.2115 122 21.7344 122C27.2572 122 31.7344 126.477 31.7344 132Z" stroke="#292828" stroke-width="3" stroke-linejoin="round"/>
<path d="M118.734 132C118.734 137.523 114.257 142 108.734 142C103.212 142 98.7344 137.523 98.7344 132C98.7344 126.477 103.212 122 108.734 122C114.257 122 118.734 126.477 118.734 132Z" stroke="#292828" stroke-width="3" stroke-linejoin="round"/>
<path d="M147.734 132C147.734 137.523 143.257 142 137.734 142C132.212 142 127.734 137.523 127.734 132C127.734 126.477 132.212 122 137.734 122C143.257 122 147.734 126.477 147.734 132Z" stroke="#292828" stroke-width="3" stroke-linejoin="round"/>
<defs>
<linearGradient id="paint0_linear_217_102" x1="-6.10156" y1="95" x2="155.734" y2="52" gradientUnits="userSpaceOnUse">
<stop stop-color="#FF8652"/>
<stop offset="1" stop-color="#39616A"/>
</linearGradient>
<linearGradient id="paint1_linear_217_102" x1="-6.10156" y1="95" x2="155.734" y2="52" gradientUnits="userSpaceOnUse">
<stop stop-color="#FF8652"/>
<stop offset="1" stop-color="#39616A"/>
</linearGradient>
<linearGradient id="paint2_linear_217_102" x1="-6.10156" y1="95" x2="155.734" y2="52" gradientUnits="userSpaceOnUse">
<stop stop-color="#FF8652"/>
<stop offset="1" stop-color="#39616A"/>
</linearGradient>
<linearGradient id="paint3_linear_217_102" x1="-6.10156" y1="95" x2="155.734" y2="52" gradientUnits="userSpaceOnUse">
<stop stop-color="#FF8652"/>
<stop offset="1" stop-color="#39616A"/>
</linearGradient>
<linearGradient id="paint4_linear_217_102" x1="-6.10156" y1="95" x2="155.734" y2="52" gradientUnits="userSpaceOnUse">
<stop stop-color="#FF8652"/>
<stop offset="1" stop-color="#39616A"/>
</linearGradient>
<linearGradient id="paint5_linear_217_102" x1="-6.10156" y1="95" x2="155.734" y2="52" gradientUnits="userSpaceOnUse">
<stop stop-color="#FF8652"/>
<stop offset="1" stop-color="#39616A"/>
</linearGradient>
<linearGradient id="paint6_linear_217_102" x1="-6.10156" y1="95" x2="155.734" y2="52" gradientUnits="userSpaceOnUse">
<stop stop-color="#FF8652"/>
<stop offset="1" stop-color="#39616A"/>
</linearGradient>
<linearGradient id="paint7_linear_217_102" x1="-6.10156" y1="95" x2="155.734" y2="52" gradientUnits="userSpaceOnUse">
<stop stop-color="#FF8652"/>
<stop offset="1" stop-color="#39616A"/>
</linearGradient>
<linearGradient id="paint8_linear_217_102" x1="-6.10156" y1="95" x2="155.734" y2="52" gradientUnits="userSpaceOnUse">
<stop stop-color="#FF8652"/>
<stop offset="1" stop-color="#39616A"/>
</linearGradient>
<linearGradient id="paint9_linear_217_102" x1="-6.10156" y1="95" x2="155.734" y2="52" gradientUnits="userSpaceOnUse">
<stop stop-color="#FF8652"/>
<stop offset="1" stop-color="#39616A"/>
</linearGradient>
<linearGradient id="paint10_linear_217_102" x1="-6.10156" y1="95" x2="155.734" y2="52" gradientUnits="userSpaceOnUse">
<stop stop-color="#FF8652"/>
<stop offset="1" stop-color="#39616A"/>
</linearGradient>
<linearGradient id="paint11_linear_217_102" x1="-6.10156" y1="95" x2="155.734" y2="52" gradientUnits="userSpaceOnUse">
<stop stop-color="#FF8652"/>
<stop offset="1" stop-color="#39616A"/>
</linearGradient>
<linearGradient id="paint12_linear_217_102" x1="-6.10156" y1="95" x2="155.734" y2="52" gradientUnits="userSpaceOnUse">
<stop stop-color="#FF8652"/>
<stop offset="1" stop-color="#39616A"/>
</linearGradient>
<linearGradient id="paint13_linear_217_102" x1="-6.10156" y1="95" x2="155.734" y2="52" gradientUnits="userSpaceOnUse">
<stop stop-color="#FF8652"/>
<stop offset="1" stop-color="#39616A"/>
</linearGradient>
<linearGradient id="paint14_linear_217_102" x1="-6.10156" y1="95" x2="155.734" y2="52" gradientUnits="userSpaceOnUse">
<stop stop-color="#FF8652"/>
<stop offset="1" stop-color="#39616A"/>
</linearGradient>
<linearGradient id="paint15_linear_217_102" x1="-6.10156" y1="95" x2="155.734" y2="52" gradientUnits="userSpaceOnUse">
<stop stop-color="#FF8652"/>
<stop offset="1" stop-color="#39616A"/>
</linearGradient>
<linearGradient id="paint16_linear_217_102" x1="-6.10156" y1="95" x2="155.734" y2="52" gradientUnits="userSpaceOnUse">
<stop stop-color="#FF8652"/>
<stop offset="1" stop-color="#39616A"/>
</linearGradient>
<linearGradient id="paint17_linear_217_102" x1="-6.10156" y1="95" x2="155.734" y2="52" gradientUnits="userSpaceOnUse">
<stop stop-color="#FF8652"/>
<stop offset="1" stop-color="#39616A"/>
</linearGradient>
<linearGradient id="paint18_linear_217_102" x1="-6.10156" y1="95" x2="155.734" y2="52" gradientUnits="userSpaceOnUse">
<stop stop-color="#FF8652"/>
<stop offset="1" stop-color="#39616A"/>
</linearGradient>
<linearGradient id="paint19_linear_217_102" x1="-6.10156" y1="95" x2="155.734" y2="52" gradientUnits="userSpaceOnUse">
<stop stop-color="#FF8652"/>
<stop offset="1" stop-color="#39616A"/>
</linearGradient>
<linearGradient id="paint20_linear_217_102" x1="-6.10156" y1="95" x2="155.734" y2="52" gradientUnits="userSpaceOnUse">
<stop stop-color="#FF8652"/>
<stop offset="1" stop-color="#39616A"/>
</linearGradient>
<linearGradient id="paint21_linear_217_102" x1="-6.10156" y1="95" x2="155.734" y2="52" gradientUnits="userSpaceOnUse">
<stop stop-color="#FF8652"/>
<stop offset="1" stop-color="#39616A"/>
</linearGradient>
<linearGradient id="paint22_linear_217_102" x1="-6.10156" y1="95" x2="155.734" y2="52" gradientUnits="userSpaceOnUse">
<stop stop-color="#FF8652"/>
<stop offset="1" stop-color="#39616A"/>
</linearGradient>
<linearGradient id="paint23_linear_217_102" x1="-6.10156" y1="95" x2="155.734" y2="52" gradientUnits="userSpaceOnUse">
<stop stop-color="#FF8652"/>
<stop offset="1" stop-color="#39616A"/>
</linearGradient>
<linearGradient id="paint24_linear_217_102" x1="-6.10156" y1="95" x2="155.734" y2="52" gradientUnits="userSpaceOnUse">
<stop stop-color="#FF8652"/>
<stop offset="1" stop-color="#39616A"/>
</linearGradient>
</defs>
</svg>
